<?xml version="1.0" encoding="utf-8"?>
<!-- Generator: Adobe Illustrator 19.1.0, SVG Export Plug-In . SVG Version: 6.00 Build 0)  -->
<!DOCTYPE svg PUBLIC "-//W3C//DTD SVG 1.1//EN" "http://www.w3.org/Graphics/SVG/1.1/DTD/svg11.dtd">
<svg version="1.1" id="Layer_1" xmlns="http://www.w3.org/2000/svg" xmlns:xlink="http://www.w3.org/1999/xlink" x="0px" y="0px"
	 viewBox="0 0 512 512" style="enable-background:new 0 0 512 512;" xml:space="preserve">
<style type="text/css">
	.st0{fill:#04B3DC;}
	.st1{fill:#129FC4;}
	.st2{fill:#0A9EC3;}
</style>
<g id="tint_1_">
	<g>
		<g>
			<path class="st0" d="M176.2,183.3c0,46,40.1,72.7,81.3,74.8c38.7-2.2,81.3-29.3,81.3-75.3c0-62.8-61.5-98.7-81.3-164.8
				C236.9,84.1,176.2,120.5,176.2,183.3z"/>
		</g>
		<g>
			<path class="st1" d="M176.2,182.5c0,46,40.1,73.4,81.3,75.6c38.7-2.2,81.3-31.2,81.3-77.2C292.2,264.3,218.6,264.1,176.2,182.5z"
				/>
		</g>
	</g>
</g>
<g>
	<path class="st2" d="M94.8,305.5c-0.4-1.4,0.4-2.4,1.8-2.4h9.3c0.8,0,1.6,0.7,1.8,1.4l10.5,40.3h0.4l16.1-41.6
		c0.2-0.6,0.7-1.1,1.7-1.1h1.8c1,0,1.5,0.5,1.7,1.1l16.2,41.6h0.4l10.3-40.3c0.2-0.7,1-1.4,1.8-1.4h9.3c1.4,0,2.2,1,1.8,2.4
		l-19.1,67.9c-0.2,0.8-1,1.4-1.8,1.4h-1.6c-0.9,0-1.5-0.5-1.7-1.1L137.4,328h-0.5L119,373.7c-0.3,0.6-0.7,1.1-1.7,1.1h-1.6
		c-0.8,0-1.6-0.6-1.8-1.4L94.8,305.5z"/>
	<path class="st2" d="M179.6,371.2l31.4-68c0.3-0.6,0.8-1.1,1.7-1.1h1c1,0,1.4,0.5,1.7,1.1l31.1,68c0.6,1.3-0.2,2.6-1.7,2.6h-8.8
		c-1.5,0-2.2-0.6-2.9-2l-5-10.9H198l-5,10.9c-0.4,1-1.3,2-2.9,2h-8.8C179.8,373.8,179,372.5,179.6,371.2z M223.3,349.7l-10.1-22.2
		h-0.3l-9.9,22.2H223.3z"/>
	<path class="st2" d="M261.6,315.2h-15.5c-1.1,0-1.9-0.9-1.9-1.9V305c0-1,0.8-1.9,1.9-1.9h44.1c1.1,0,1.9,0.9,1.9,1.9v8.3
		c0,1-0.8,1.9-1.9,1.9h-15.5v56.7c0,1-0.9,1.9-1.9,1.9h-9.4c-1,0-1.9-0.9-1.9-1.9V315.2z"/>
	<path class="st2" d="M302.7,305c0-1,0.8-1.9,1.9-1.9h41.1c1.1,0,1.9,0.9,1.9,1.9v8.3c0,1-0.8,1.9-1.9,1.9h-29.9v16.6h25
		c1,0,1.9,0.9,1.9,1.9v8.4c0,1.1-0.9,1.9-1.9,1.9h-25v17.7h29.9c1.1,0,1.9,0.9,1.9,1.9v8.3c0,1-0.8,1.9-1.9,1.9h-41.1
		c-1.1,0-1.9-0.9-1.9-1.9V305z"/>
	<path class="st2" d="M362.1,305c0-1,0.8-1.9,1.9-1.9h28.9c12.1,0,22,9.7,22,21.7c0,9.3-6.2,16.9-15,20.4l13.8,25.7
		c0.7,1.3,0,2.9-1.7,2.9h-10.6c-0.9,0-1.4-0.5-1.6-0.9l-13.4-26.8h-11.2v25.8c0,1-0.9,1.9-1.9,1.9H364c-1.1,0-1.9-0.9-1.9-1.9V305z
		 M391.8,335.3c5.4,0,10-4.6,10-10.3c0-5.4-4.6-9.8-10-9.8h-16.5v20.1H391.8z"/>
	<path class="st2" d="M9.3,416.5c0-1,0.8-1.9,1.9-1.9h28.9c12.1,0,22,9.7,22,21.7c0,9.3-6.2,16.9-15,20.4L61,482.4
		c0.7,1.3,0,2.9-1.7,2.9H48.7c-0.9,0-1.4-0.5-1.6-0.9l-13.4-26.8H22.4v25.8c0,1-0.9,1.9-1.9,1.9h-9.3c-1.1,0-1.9-0.9-1.9-1.9V416.5z
		 M39,446.8c5.4,0,10-4.6,10-10.3c0-5.4-4.6-9.8-10-9.8H22.5v20.1H39z"/>
	<path class="st2" d="M76.5,416.5c0-1,0.8-1.9,1.9-1.9h41.1c1.1,0,1.9,0.9,1.9,1.9v8.3c0,1-0.8,1.9-1.9,1.9H89.7v16.6h25
		c1,0,1.9,0.9,1.9,1.9v8.4c0,1.1-0.9,1.9-1.9,1.9h-25v17.7h29.9c1.1,0,1.9,0.9,1.9,1.9v8.3c0,1-0.8,1.9-1.9,1.9H78.5
		c-1.1,0-1.9-0.9-1.9-1.9V416.5z"/>
	<path class="st2" d="M135.9,416.5c0-1,0.8-1.9,1.9-1.9h23.7c12.4,0,22.6,10.1,22.6,22.3c0,12.5-10.2,22.7-22.5,22.7h-12.6v23.7
		c0,1-0.9,1.9-1.9,1.9h-9.3c-1.1,0-1.9-0.9-1.9-1.9V416.5z M160.8,447.3c5.7,0,10.4-4.5,10.4-10.5c0-5.6-4.7-9.8-10.4-9.8h-11.7
		v20.3H160.8z"/>
	<path class="st2" d="M227,413.6c20.2,0,36.4,16.3,36.4,36.5c0,20.2-16.2,36.3-36.4,36.3c-20.2,0-36.3-16.1-36.3-36.3
		C190.7,429.8,206.8,413.6,227,413.6z M227,473.2c12.7,0,23.2-10.4,23.2-23.1s-10.5-23.3-23.2-23.3c-12.7,0-23.1,10.6-23.1,23.3
		S214.2,473.2,227,473.2z"/>
	<path class="st2" d="M276.6,416.5c0-1,0.8-1.9,1.9-1.9h28.9c12.1,0,22,9.7,22,21.7c0,9.3-6.2,16.9-15,20.4l13.8,25.7
		c0.7,1.3,0,2.9-1.7,2.9H316c-0.9,0-1.4-0.5-1.6-0.9l-13.4-26.8h-11.2v25.8c0,1-0.9,1.9-1.9,1.9h-9.3c-1.1,0-1.9-0.9-1.9-1.9V416.5z
		 M306.3,446.8c5.4,0,10-4.6,10-10.3c0-5.4-4.6-9.8-10-9.8h-16.5v20.1H306.3z"/>
	<path class="st2" d="M353.4,426.7h-15.5c-1.1,0-1.9-0.9-1.9-1.9v-8.3c0-1,0.8-1.9,1.9-1.9H382c1.1,0,1.9,0.9,1.9,1.9v8.3
		c0,1-0.8,1.9-1.9,1.9h-15.5v56.7c0,1-0.9,1.9-1.9,1.9h-9.4c-1,0-1.9-0.9-1.9-1.9V426.7z"/>
	<path class="st2" d="M394.5,416.5c0-1,0.8-1.9,1.9-1.9h41.1c1.1,0,1.9,0.9,1.9,1.9v8.3c0,1-0.8,1.9-1.9,1.9h-29.9v16.6h25
		c1,0,1.9,0.9,1.9,1.9v8.4c0,1.1-0.9,1.9-1.9,1.9h-25v17.7h29.9c1.1,0,1.9,0.9,1.9,1.9v8.3c0,1-0.8,1.9-1.9,1.9h-41.1
		c-1.1,0-1.9-0.9-1.9-1.9V416.5z"/>
	<path class="st2" d="M453.9,416.5c0-1,0.8-1.9,1.9-1.9h28.9c12.1,0,22,9.7,22,21.7c0,9.3-6.2,16.9-15,20.4l13.8,25.7
		c0.7,1.3,0,2.9-1.7,2.9h-10.6c-0.9,0-1.4-0.5-1.6-0.9l-13.4-26.8H467v25.8c0,1-0.9,1.9-1.9,1.9h-9.3c-1.1,0-1.9-0.9-1.9-1.9V416.5z
		 M483.6,446.8c5.4,0,10-4.6,10-10.3c0-5.4-4.6-9.8-10-9.8h-16.5v20.1H483.6z"/>
</g>
<g id="tint_2_">
	<g>
		<g>
			<g>
				<path class="st0" d="M-112.6-164.1c0,26.2,22.8,41.4,46.3,42.6c22-1.2,46.3-16.7,46.3-42.9c0-35.7-35-56.2-46.3-93.8
					C-78-220.6-112.6-199.8-112.6-164.1z"/>
			</g>
		</g>
		<g>
			<path class="st1" d="M-112.5-164.6c0,26.9,22.8,41.7,46.2,43c22-1.2,47.4-17.6,46.2-43.9C-46.6-118-88.4-118.1-112.5-164.6z"/>
		</g>
	</g>
</g>
<g>
	<path class="st2" d="M-1.6-255.4c-0.3-1.1,0.3-2,1.5-2h7.5c0.7,0,1.3,0.6,1.5,1.1l8.5,32.5h0.3l12.9-33.5c0.2-0.5,0.6-0.9,1.4-0.9
		h1.5c0.8,0,1.2,0.4,1.4,0.9l13,33.5h0.3l8.3-32.5c0.2-0.6,0.8-1.1,1.5-1.1h7.5c1.1,0,1.8,0.8,1.5,2l-15.4,54.7
		c-0.2,0.7-0.8,1.1-1.5,1.1h-1.3c-0.7,0-1.2-0.4-1.4-0.9l-14.6-36.9h-0.4L18-200.5c-0.2,0.5-0.6,0.9-1.4,0.9h-1.3
		c-0.7,0-1.3-0.5-1.5-1.1L-1.6-255.4z"/>
	<path class="st2" d="M62.7-202.5L88-257.3c0.2-0.5,0.7-0.9,1.4-0.9h0.8c0.8,0,1.1,0.4,1.4,0.9l25.1,54.8c0.5,1.1-0.2,2.1-1.4,2.1
		h-7.1c-1.2,0-1.8-0.5-2.4-1.6l-4-8.8H77.5l-4,8.8c-0.3,0.8-1.1,1.6-2.4,1.6H64C62.9-200.4,62.3-201.5,62.7-202.5z M97.9-219.9
		l-8.1-17.9h-0.2l-8,17.9H97.9z"/>
	<path class="st2" d="M126.7-247.6h-12.5c-0.9,0-1.5-0.7-1.5-1.5v-6.7c0-0.8,0.7-1.5,1.5-1.5h35.6c0.9,0,1.5,0.7,1.5,1.5v6.7
		c0,0.8-0.7,1.5-1.5,1.5h-12.5v45.6c0,0.8-0.7,1.5-1.5,1.5h-7.6c-0.8,0-1.5-0.7-1.5-1.5V-247.6L126.7-247.6z"/>
	<path class="st2" d="M159.9-255.8c0-0.8,0.7-1.5,1.5-1.5h33.1c0.9,0,1.5,0.7,1.5,1.5v6.7c0,0.8-0.7,1.5-1.5,1.5h-24.1v13.3h20.1
		c0.8,0,1.5,0.7,1.5,1.5v6.8c0,0.9-0.7,1.5-1.5,1.5h-20.1v14.2h24.1c0.9,0,1.5,0.7,1.5,1.5v6.8c0,0.8-0.7,1.5-1.5,1.5h-33.1
		c-0.9,0-1.5-0.7-1.5-1.5V-255.8z"/>
	<path class="st2" d="M205.7-255.8c0-0.8,0.7-1.5,1.5-1.5h23.3c9.8,0,17.7,7.8,17.7,17.5c0,7.5-5,13.6-12,16.4l11.1,20.7
		c0.6,1.1,0,2.4-1.4,2.4h-8.5c-0.7,0-1.1-0.4-1.3-0.7l-10.8-21.6h-9v20.6c0,0.8-0.7,1.5-1.5,1.5h-7.5c-0.9,0-1.5-0.7-1.5-1.5
		L205.7-255.8L205.7-255.8z M229.6-231.4c4.3,0,8.1-3.7,8.1-8.3c0-4.3-3.7-7.9-8.1-7.9h-13.3v16.2L229.6-231.4L229.6-231.4z"/>
</g>
<path class="st2" d="M5.5-175.3c0-0.8,0.7-1.5,1.5-1.5h23.3c9.8,0,17.7,7.8,17.7,17.5c0,7.5-5,13.6-12,16.4l11.2,20.7
	c0.6,1.1,0,2.4-1.4,2.4h-8.5c-0.7,0-1.1-0.4-1.3-0.7l-10.8-21.6h-9v20.8c0,0.8-0.7,1.5-1.5,1.5H7.2c-0.9,0-1.5-0.7-1.5-1.5v-54
	L5.5-175.3L5.5-175.3z M29.4-150.9c4.3,0,8.1-3.7,8.1-8.3c0-4.3-3.7-7.9-8.1-7.9H16.1v16.2H29.4z"/>
<path class="st2" d="M56.6-175.3c0-0.8,0.7-1.5,1.5-1.5h33.1c0.9,0,1.5,0.7,1.5,1.5v6.7c0,0.8-0.7,1.5-1.5,1.5H67.1v13.3h20.1
	c0.8,0,1.5,0.7,1.5,1.5v6.8c0,0.9-0.7,1.5-1.5,1.5H67.1v14.2h24.1c0.9,0,1.5,0.7,1.5,1.5v6.7c0,0.8-0.7,1.5-1.5,1.5H58.1
	c-0.9,0-1.5-0.7-1.5-1.5V-175.3L56.6-175.3z"/>
<path class="st2" d="M101.4-175.3c0-0.8,0.7-1.5,1.5-1.5H122c10,0,18.2,8.1,18.2,18c0,10.1-8.2,18.3-18.2,18.3h-10.2v19.1
	c0,0.8-0.7,1.5-1.5,1.5h-7.4c-0.9,0-1.5-0.7-1.5-1.5C101.4-121.4,101.4-175.3,101.4-175.3z M121.4-150.5c4.6,0,8.4-3.7,8.4-8.5
	c0-4.5-3.8-7.9-8.4-7.9H112v16.4H121.4z"/>
<path class="st2" d="M175.7-177.7c16.3,0,29.3,13.1,29.3,29.4s-13,29.2-29.3,29.2s-29.2-12.9-29.2-29.2
	C146.5-164.5,159.5-177.7,175.7-177.7z M175.7-129.6c10.3,0,18.7-8.4,18.7-18.6c0-10.3-8.5-18.8-18.7-18.8
	c-10.3,0-18.6,8.5-18.6,18.8C157.1-138,165.5-129.6,175.7-129.6z"/>
<path class="st2" d="M212.7-175.3c0-0.8,0.7-1.5,1.5-1.5h23.3c9.8,0,17.7,7.8,17.7,17.5c0,7.5-5,13.6-12,16.4l11.1,20.7
	c0.6,1.1,0,2.4-1.4,2.4h-8.5c-0.7,0-1.1-0.4-1.3-0.7l-10.8-21.6h-9v20.8c0,0.8-0.7,1.5-1.5,1.5h-7.5c-0.9,0-1.5-0.7-1.5-1.5
	L212.7-175.3L212.7-175.3L212.7-175.3z M236.6-150.9c4.3,0,8.1-3.7,8.1-8.3c0-4.3-3.7-7.9-8.1-7.9h-13.3v16.2H236.6z"/>
<path class="st2" d="M274.5-167.1H262c-0.9,0-1.5-0.7-1.5-1.5v-6.7c0-0.8,0.7-1.5,1.5-1.5h35.6c0.9,0,1.5,0.7,1.5,1.5v6.7
	c0,0.8-0.7,1.5-1.5,1.5h-12.5v45.7c0,0.8-0.7,1.5-1.5,1.5H276c-0.8,0-1.5-0.7-1.5-1.5V-167.1z"/>
<path class="st2" d="M307.7-175.3c0-0.8,0.7-1.5,1.5-1.5h33.1c0.9,0,1.5,0.7,1.5,1.5v6.7c0,0.8-0.7,1.5-1.5,1.5h-24.1v13.3h20.1
	c0.8,0,1.5,0.7,1.5,1.5v6.8c0,0.9-0.7,1.5-1.5,1.5h-20.1v14.2h24.1c0.9,0,1.5,0.7,1.5,1.5v6.7c0,0.8-0.7,1.5-1.5,1.5h-33.1
	c-0.9,0-1.5-0.7-1.5-1.5L307.7-175.3L307.7-175.3z"/>
<path class="st2" d="M351.5-175.3c0-0.8,0.7-1.5,1.5-1.5h23.3c9.8,0,17.7,7.8,17.7,17.5c0,7.5-5,13.6-12,16.4l11.1,20.7
	c0.6,1.1,0,2.4-1.4,2.4h-8.5c-0.7,0-1.1-0.4-1.3-0.7l-10.8-21.6h-9v20.8c0,0.8-0.7,1.5-1.5,1.5h-7.5c-0.9,0-1.5-0.7-1.5-1.5v-54
	L351.5-175.3L351.5-175.3z M375.4-150.9c4.3,0,8.1-3.7,8.1-8.3c0-4.3-3.7-7.9-8.1-7.9h-13.3v16.2
	C362.1-150.9,375.4-150.9,375.4-150.9z"/>
</svg>
