<svg version="1.1" xmlns="http://www.w3.org/2000/svg" xmlns:xlink="http://www.w3.org/1999/xlink" x="0px" y="0px"
	 width="21.801px" height="44.016px" viewBox="0 0 21.801 44.016" style="enable-background:new 0 0 21.801 44.016; fill:#46BFE4"
	 xml:space="preserve">
<g id="Facebook">
	<path d="M15.011,44.016h-11V23.014L0,23.035l0.011-9.02h4l0.21-4.203C4.221,5.069,6.843,0,14.204,0l7.597,0.03v9.207h-5.796
		c-0.602,0-0.994,0.066-0.994,0.776v4.002h6l0.025,9.02l-6.025-0.021V44.016z M6.011,42.014h7L13.1,21.025h6.09l-0.178-5.012h-6
		l0.088-5.763c0-2.089,1.459-3.025,2.905-3.025h3.75V2.034L14.2,2.011c-7.359,0-7.932,5.972-7.932,7.802l-0.256,6.201h-4v5h4V42.014
		z"/>
</g>
</svg>
