<svg version="1.1" xmlns="http://www.w3.org/2000/svg" xmlns:xlink="http://www.w3.org/1999/xlink" x="0px" y="0px"
	 width="38.886px" height="49.811px" viewBox="0 0 38.886 49.811" style="enable-background:new 0 0 38.886 49.811; fill:#46BFE4"
	 xml:space="preserve">
<g id="Pinterest">
	<path d="M9.095,49.811c-0.316,0-0.544-0.13-0.676-0.228c-0.753-0.268-0.861-1.033-0.909-1.375c-0.247-1.761-0.146-3.661-0.05-5.498
		l0.049-0.964c0.109-2.367,0.585-4.349,1.045-6.266l0.094-0.39c0.442-1.857,0.876-3.697,1.31-5.539
		c0.464-1.971,0.928-3.943,1.405-5.944c0.021-0.089,0.052-0.192,0.083-0.3c0.016-0.049,0.032-0.101,0.046-0.148
		c-0.44-1.173-0.678-2.144-0.79-3.213c-0.147-1.363-0.05-2.705,0.29-3.982c0.667-2.516,2.207-4.355,4.226-5.046
		c1.343-0.464,3.004-0.321,4.111,0.328c1.077,0.633,1.785,1.624,2.106,2.948c0.261,1.063,0.213,2.366-0.147,3.979
		c-0.317,1.427-0.702,2.657-1.075,3.848c-0.236,0.758-0.478,1.525-0.709,2.367l-0.039,0.141c-0.266,0.958-0.517,1.865-0.31,2.738
		c0.181,0.759,0.566,1.33,1.213,1.794c0.64,0.46,1.331,0.665,2.243,0.665l0.212-0.004c1.576-0.053,2.972-0.884,4.265-2.54
		c1.581-2.022,2.577-4.791,2.961-8.226c0.158-1.418,0.199-2.555,0.129-3.573c-0.144-2.091-0.787-3.858-1.912-5.248
		c-1.061-1.314-2.541-2.304-4.28-2.863c-1.857-0.598-4.475-0.761-6.618-0.4c-3.827,0.646-6.795,2.745-8.582,6.069
		c-0.985,1.832-1.465,3.758-1.465,5.882c0,1.62,0.374,3.001,1.113,4.102c0.084,0.126,0.189,0.242,0.295,0.362
		c0.197,0.226,0.421,0.479,0.609,0.811c0.5,0.864,0.198,1.845-0.021,2.561c-0.038,0.125-0.075,0.244-0.104,0.356
		c-0.034,0.127-0.062,0.263-0.089,0.397c-0.149,0.723-0.461,2.226-2.03,2.254H7.091c-0.911,0-2.151-0.918-2.164-0.928
		c-2.081-1.556-2.935-2.672-3.974-5.191c-0.83-2.018-1.195-5.599-0.781-7.665c0.35-1.75,1.172-4.431,2.009-5.951
		c1.607-2.923,3.935-5.283,6.917-7.021c2.336-1.358,4.872-2.22,7.754-2.633c1.038-0.149,2.116-0.208,3.132-0.253
		C20.281,0.007,20.579,0,20.874,0c3.374,0,6.072,0.879,7.743,1.614c2.315,1.02,4.268,2.404,5.969,4.231
		c1.736,1.869,2.944,4.017,3.694,6.566c0.401,1.35,0.605,2.904,0.605,4.616c0,1.481-0.122,2.83-0.409,4.509
		c-0.953,5.612-3.689,10.126-7.704,12.704c-1.122,0.721-2.328,1.269-3.585,1.627c-1.657,0.48-3.102,0.667-4.587,0.563
		c-1.525-0.103-2.929-0.504-4.171-1.196c-0.578-0.322-1.079-0.667-1.513-1.047l-0.023,0.095c-0.232,0.926-0.467,1.858-0.706,2.782
		l-0.202,0.793c-0.334,1.313-0.678,2.674-1.198,3.938c-1.163,2.829-2.484,5.065-4.039,6.84C10.093,49.386,9.692,49.811,9.095,49.811
		z M16.911,12.641c-0.367,0-0.718,0.057-1.044,0.17c-1.378,0.471-2.449,1.808-2.942,3.667c-0.276,1.041-0.355,2.136-0.235,3.257
		c0.101,0.953,0.323,1.823,0.747,2.913c0.169,0.419,0.039,0.853-0.074,1.233c-0.021,0.069-0.041,0.135-0.055,0.19
		c-0.477,1.998-0.94,3.971-1.404,5.938c-0.434,1.845-0.867,3.688-1.311,5.547l-0.094,0.393c-0.438,1.825-0.892,3.713-0.992,5.892
		l-0.05,0.976c-0.077,1.465-0.156,2.972-0.054,4.318c1.34-1.577,2.497-3.577,3.534-6.102c0.466-1.13,0.778-2.36,1.108-3.664
		l0.206-0.807c0.238-0.916,0.471-1.846,0.702-2.765l0.505-2.001c0.101-0.395,0.43-0.688,0.832-0.743
		c0.403-0.057,0.8,0.139,1.002,0.49c0.456,0.787,1.106,1.389,2.109,1.944c0.997,0.557,2.087,0.867,3.334,0.951
		c1.246,0.083,2.465-0.078,3.898-0.491c1.072-0.307,2.1-0.772,3.057-1.387c3.535-2.273,5.955-6.307,6.813-11.358
		c0.268-1.562,0.381-2.812,0.381-4.174c0-1.52-0.176-2.883-0.523-4.05c-0.661-2.248-1.722-4.135-3.241-5.771
		c-1.512-1.624-3.249-2.856-5.311-3.765c-1.625-0.714-4.382-1.579-7.735-1.423c-0.968,0.043-1.989,0.097-2.939,0.233
		c-2.622,0.377-4.923,1.157-7.032,2.384c-2.664,1.553-4.74,3.656-6.171,6.256c-0.639,1.161-1.429,3.524-1.8,5.38
		c-0.332,1.657,0,4.883,0.67,6.511c0.894,2.169,1.546,3.024,3.321,4.352c0.228,0.17,0.646,0.4,0.882,0.494
		c0.062-0.158,0.119-0.439,0.157-0.623c0.035-0.172,0.071-0.342,0.113-0.501c0.035-0.137,0.08-0.284,0.127-0.437
		c0.082-0.268,0.253-0.823,0.195-0.984c-0.087-0.152-0.227-0.312-0.375-0.48c-0.162-0.185-0.319-0.368-0.451-0.565
		c-0.965-1.438-1.453-3.192-1.453-5.217c0-2.462,0.557-4.697,1.703-6.829c2.09-3.888,5.552-6.34,10.011-7.095
		c2.453-0.414,5.406-0.225,7.562,0.468c2.112,0.68,3.919,1.895,5.226,3.511c1.387,1.719,2.178,3.86,2.352,6.368
		c0.078,1.142,0.034,2.392-0.137,3.934c-0.427,3.81-1.562,6.915-3.373,9.234c-1.657,2.121-3.6,3.233-5.772,3.307l-0.28,0.006
		c-1.32,0-2.437-0.34-3.41-1.041c-1.044-0.749-1.696-1.716-1.992-2.956c-0.325-1.376,0.022-2.629,0.329-3.734l0.038-0.14
		c0.237-0.864,0.484-1.653,0.729-2.432c0.377-1.203,0.732-2.34,1.031-3.685c0.287-1.289,0.34-2.321,0.156-3.072
		c-0.191-0.788-0.575-1.344-1.176-1.695C17.963,12.765,17.438,12.641,16.911,12.641z"/>
</g>
</svg>
