<svg version="1.1" xmlns="http://www.w3.org/2000/svg" xmlns:xlink="http://www.w3.org/1999/xlink" x="0px" y="0px" width="49.4px"
	 height="40.018px" viewBox="0 0 49.4 40.018" style="enable-background:new 0 0 49.4 40.018; fill:#46BFE4" xml:space="preserve">
<g id="Twitter">
	<path d="M16.521,40.018C16.521,40.018,16.521,40.018,16.521,40.018c-4.51,0-8.652-1.037-11.981-2.999
		c-0.367-0.216-5.12-4.042-4.481-6.31c0.136-0.48,0.599-1.289,2.168-1.289c0.539,0,1.068,0.008,1.592,0.014
		c1.778,0.021,3.451,0.029,5.006-0.178c-1.588-1.112-2.792-2.561-3.435-4.179c-0.256-0.646-0.538-1.584-0.545-2.586
		c-0.551-0.577-1.03-1.22-1.426-1.912c-1.062-1.857-1.578-4.128-1.492-6.567c0.028-0.797,0.229-1.391,0.602-1.779
		c-0.099-0.305-0.181-0.614-0.246-0.928c-0.226-1.061-0.3-2.227-0.229-3.561c0.147-2.765,1.081-4.846,3.026-6.748
		C5.425,0.659,5.856,0.48,6.325,0.48c1.291,0,2.413,1.342,3.642,2.964c0.236,0.312,0.503,0.665,0.615,0.771
		c2.582,2.461,5.833,4.191,10.432,5.529c0.189-2.321,1.177-4.495,2.853-6.227C26.029,1.282,29.087,0,32.255,0
		c1.172,0,2.33,0.178,3.44,0.528c1.347,0.427,2.623,1.133,3.717,2.056c0.973-0.182,1.974-0.514,3.044-1.01
		c0.119-0.056,0.272-0.146,0.449-0.25c0.662-0.387,1.569-0.918,2.438-0.918c0.821,0,1.458,0.451,1.749,1.238
		c0.262,0.712,0.114,1.611-0.189,2.536c0.543-0.034,0.998,0.093,1.313,0.276h0.163l0.315,0.395l-0.001,0.001
		c0.016,0.018,0.03,0.036,0.044,0.052c0.001,0.004,0.003,0.006,0.005,0.008l0.09,0.112l0.567,0.79l-0.25,0.184
		c0.088,1.374-1.044,3.08-2.139,4.512c-0.404,0.525-0.917,0.961-1.413,1.38c-0.819,0.691-1.353,1.181-1.309,1.656
		c0.375,4.087-1.299,8.329-2.592,11.164c-3.035,6.662-8.66,11.582-15.838,13.857C22.867,39.516,19.638,40.018,16.521,40.018z
		 M2.058,31.411c0.354,1.009,2.732,3.439,3.521,3.905c3.015,1.777,6.798,2.717,10.941,2.717h0.001c2.909,0,5.923-0.469,8.719-1.354
		c6.627-2.101,11.818-6.638,14.615-12.779c1.201-2.634,2.757-6.553,2.424-10.176c-0.141-1.527,1.048-2.532,2.002-3.339
		c0.434-0.366,0.844-0.713,1.116-1.068c1.607-2.102,1.741-2.93,1.739-3.157c-0.016,0-0.035-0.001-0.057-0.001
		c-0.294,0-0.728,0.131-1.077,0.236c-0.182,0.055-0.352,0.105-0.499,0.142l-1.987,0.484l0.817-1.843
		c0.804-1.808,0.912-2.501,0.879-2.771c-0.36,0.085-0.966,0.438-1.277,0.621c-0.243,0.141-0.457,0.264-0.62,0.339
		c-1.424,0.659-2.758,1.07-4.077,1.255L38.76,4.689l-0.353-0.327c-0.958-0.886-2.109-1.56-3.33-1.945
		c-0.91-0.286-1.86-0.433-2.822-0.433c-2.618,0-5.142,1.057-6.926,2.9c-1.613,1.668-2.437,3.839-2.32,6.112l0.07,1.362l-1.339-0.354
		c-5.543-1.456-9.536-3.479-12.565-6.365C8.947,5.422,8.682,5.072,8.346,4.629C7.949,4.104,6.938,2.77,6.405,2.503
		C4.87,4.043,4.192,5.601,4.072,7.848c-0.062,1.161,0,2.161,0.19,3.055c0.101,0.483,0.251,0.951,0.448,1.396l0.542,1.221
		l-1.266,0.15c-0.015,0.071-0.031,0.196-0.039,0.411c-0.074,2.075,0.353,3.986,1.233,5.526c0.377,0.658,0.846,1.258,1.395,1.783
		l0.34,0.327l-0.04,0.466c-0.053,0.623,0.088,1.395,0.397,2.174c0.74,1.864,2.473,3.459,4.753,4.373l2.575,1.034l-2.649,0.83
		c-2.341,0.733-4.575,0.835-6.639,0.835c-0.501,0-1.007-0.006-1.518-0.013c-0.516-0.005-1.037-0.013-1.567-0.013
		C2.161,31.404,2.105,31.406,2.058,31.411z"/>
</g>
</svg>
