<svg xmlns="http://www.w3.org/2000/svg" width="256" height="256"><g transform="translate(0 -796.362)"><path d="M150.513 45.636a18.435 14.395 0 1 1-36.871 0 18.435 14.395 0 1 1 36.871 0z" transform="matrix(.868 0 0 1.112 13.37 815.637)" fill="#fff"/><rect width="56" height="2" x="100" y="829.362" fill="#00aadf"/><rect width="128" height="26" x="64" y="978.362" rx="3.938" ry="3.467" fill="#dff7ff"/><rect width="128" height="64" x="64" y="979.362" rx="4" ry="4" stroke="#00aadf" stroke-width="2" fill="none"/><rect width="38" height="15.143" x="109" y="876.219" rx="4" ry="4" fill="#dff7ff" stroke="#00aadf" stroke-width="2"/><rect width="128" height="2" x="64" y="1002.362" fill="#00aadf"/><path d="M96.8 885.362h62.4l7.8 94h-78z" fill="#fff" stroke="#00aadf" stroke-width="2"/><path d="M1 1027.362c13.177-2.741 22.741-16 36.286-16 13.544 0 22.741 16 36.286 16 13.544 0 22.741-16 36.286-16 13.544 0 22.741 16 36.286 16 13.544 0 22.741-16 36.286-16 13.544 0 22.741 16 36.286 16 13.544 0 36.286-16 36.286-16" stroke="#00aadf" stroke-width="2" stroke-linecap="round" fill="none"/><text style="line-height:125%;-inkscape-font-specification:Ubuntu" x="102.283" y="974.723" transform="scale(1.019 .981)" font-size="61.595" letter-spacing="0" word-spacing="0" font-family="Ubuntu"><tspan x="102.283" y="974.723" style="-inkscape-font-specification:Museo Slab" font-size="46.196" fill="#dff7ff" stroke="#00aadf" stroke-width="2" font-family="Museo Slab">W</tspan></text><path d="M150.513 45.636a18.435 14.395 0 1 1-36.871 0 18.435 14.395 0 1 1 36.871 0z" transform="matrix(.651 0 0 .834 42.027 828.318)" fill="#fff"/><rect width="94" height="6" x="81" y="863.362" rx="3" ry="3" fill="#fff" stroke="#00aadf" stroke-width="2"/><rect width="18" height="10" x="89" y="853.362" rx="5" ry="5" fill="#dff7ff" stroke="#00aadf" stroke-width="2" stroke-linecap="round" stroke-dashoffset="40"/><rect width="14" height="14" x="147" y="849.362" rx="4" ry="4" fill="#dff7ff" stroke="#00aadf" stroke-width="2" stroke-linecap="round" stroke-dashoffset="40"/><rect width="30" height="6" x="-859.362" y="125" rx="5" ry="3" transform="rotate(-90)" fill="#fff" stroke="#00aadf" stroke-width="2"/><rect width="14" height="10" x="121" y="825.362" rx="3" ry="3" fill="#fff" stroke="#00aadf" stroke-width="2" stroke-linecap="round" stroke-dashoffset="40"/><path d="M62.25 39.25a5.5 5.5 0 1 1-11 0 5.5 5.5 0 1 1 11 0z" transform="matrix(.909 0 0 .909 48.409 794.68)" fill="#dff7ff" stroke="#00aadf" stroke-width="2.2" stroke-dashoffset="40"/><path d="M157 825.362c2.997-1.604 6.747-2.985 10-2 1.805.546 3.278 2.258 4 4 .765 1.848.765 4.152 0 6-.722 1.742-2.195 3.454-4 4-3.253.985-7.003-.396-10-2-1.663-.89-3.278-2.258-4-4-.255-.616-.255-1.384 0-2 .722-1.742 2.337-3.11 4-4z" fill="#fff" stroke="#00aadf" stroke-width="2" stroke-linecap="round" stroke-dashoffset="40"/><path d="M150.513 45.636a18.435 14.395 0 1 1-36.871 0 18.435 14.395 0 1 1 36.871 0z" transform="matrix(.759 0 0 .973 27.699 821.978)" fill="#00aadf"/><path d="M150.513 45.636a18.435 14.395 0 1 1-36.871 0 18.435 14.395 0 1 1 36.871 0z" transform="matrix(.651 0 0 .834 42.027 828.318)" fill="#fff"/></g></svg>