<?xml version="1.0" encoding="utf-8"?>
<!-- Generator: Adobe Illustrator 19.1.0, SVG Export Plug-In . SVG Version: 6.00 Build 0)  -->
<!DOCTYPE svg PUBLIC "-//W3C//DTD SVG 1.1//EN" "http://www.w3.org/Graphics/SVG/1.1/DTD/svg11.dtd">
<svg version="1.1" id="Layer_1" xmlns="http://www.w3.org/2000/svg" xmlns:xlink="http://www.w3.org/1999/xlink" x="0px" y="0px"
	 viewBox="0 0 16.6 17.1" enable-background="new 0 0 16.6 17.1" xml:space="preserve">
<g>
	<g>
		<path fill="none" stroke="#0C9FC4" stroke-miterlimit="10" d="M11.1,2.6c-2.4-2.4-6.2-2.4-8.5,0c-2.4,2.4-2.4,6.2,0,8.5
			c2.4,2.4,6.2,2.4,8.5,0C13.4,8.8,13.4,4.9,11.1,2.6z M10.7,10.7c-2.1,2.1-5.6,2.1-7.7,0C0.9,8.6,0.9,5.1,3,3
			c2.1-2.1,5.6-2.1,7.7,0C12.8,5.1,12.8,8.6,10.7,10.7z M11.8,11.5l-0.6,0.6l3.7,3.7l0.6-0.6L11.8,11.5z"/>
	</g>
</g>
</svg>
